<?xml version="1.0" encoding="UTF-8"?>
<!DOCTYPE svg PUBLIC "-//W3C//DTD SVG 1.1//EN" "http://www.w3.org/Graphics/SVG/1.1/DTD/svg11.dtd">
<!-- Creator: CorelDRAW 2020 (64 Bit) -->
<svg xmlns="http://www.w3.org/2000/svg" xml:space="preserve" width="1123px" height="1587px" version="1.1" style="shape-rendering:geometricPrecision; text-rendering:geometricPrecision; image-rendering:optimizeQuality; fill-rule:evenodd; clip-rule:evenodd"
viewBox="0 0 1123 1588.081"
 xmlns:xlink="http://www.w3.org/1999/xlink"
 xmlns:xodm="http://www.corel.com/coreldraw/odm/2003"
 aria-hidden="true"
 focusable="false"
 data-prefix="fas"
 data-icon="music"
 role="img">
 <defs>
  <style type="text/css">
   <![CDATA[
    .fil0 {fill:#BDBD02;fill-rule:nonzero}
   ]]>
  </style>
 </defs>
 <g id="Camada_x0020_1">
  <metadata id="CorelCorpID_0Corel-Layer"/>
  <path class="fil0" d="M1031.712 235.852l-701.809 207.251c-29.23,9.173 -49.135,36.277 -49.152,66.919l0 573.366c-22.969,-5.551 -46.567,-8.492 -70.202,-8.603 -116.248,0 -210.563,62.861 -210.563,140.375 0,77.513 94.315,140.375 210.563,140.375 116.248,0 210.562,-62.862 210.562,-140.375l0.014 -512.539 561.5 -164.502 0 404.916c-22.925,-5.586 -46.533,-8.514 -70.177,-8.625 -116.248,0 -210.563,62.862 -210.563,140.375 0,77.514 94.315,140.375 210.563,140.375 116.248,0 210.562,-62.839 210.562,-140.375l-0.01 -772.057c-0.035,-38.734 -31.456,-70.122 -70.188,-70.122 -7.155,0 -14.276,1.105 -21.096,3.248l-0.004 -0.002z"/>
 </g>
</svg>
